<svg width="100" height="100" viewBox="0 0 100 100" fill="none" xmlns="http://www.w3.org/2000/svg">
<path d="M13.9885 70.4936H15.7104L16.2135 89.2905C16.2625 90.6217 17.3448 91.6645 18.6781 91.6645H31.649C32.9802 91.6645 34.0625 90.6217 34.1125 89.2728L34.3833 78.854H37.45C38.5156 82.1405 41.5698 84.5384 45.2052 84.5384C49.7208 84.5384 53.3937 80.8655 53.3937 76.3499C53.3937 71.8342 49.7219 68.1613 45.2052 68.1613C40.9052 68.1613 37.4083 71.504 37.0812 75.7217H34.4646L34.6 70.4926H37.1354C40.0146 70.4926 42.3573 68.1499 42.3573 65.2707V62.4113H67.0354C68.0667 62.4113 69.0073 61.8915 69.55 61.0207C70.0969 60.1447 70.15 59.0655 69.6875 58.1165L67.6125 53.9905C67.1219 52.9634 66.101 52.327 64.9469 52.327H42.3562V49.5551H61.0417C63.399 50.5134 65.9615 51.0582 68.6458 51.1103L72.3531 58.4686C73.0417 59.8759 74.3135 60.9009 75.8427 61.2832L86.4333 63.9353C87.4156 64.178 88.1021 65.0561 88.1021 66.0686V73.5426C88.1021 74.7519 87.1094 75.7342 85.8896 75.7342H83.6042C83.2844 71.5092 79.7833 68.1592 75.4771 68.1592C71.1771 68.1592 67.6802 71.5019 67.3531 75.7197H56.3698C55.5052 75.7197 54.8042 76.4207 54.8042 77.2853C54.8042 78.1499 55.5052 78.8509 56.3698 78.8509H67.7229C68.7885 82.1374 71.8427 84.5353 75.4781 84.5353C79.1094 84.5353 82.1594 82.1447 83.2292 78.8665H85.8906C88.8365 78.8665 91.2344 76.478 91.2344 73.5426V66.0686C91.2344 63.6103 89.5688 61.4832 87.1896 60.8957L76.6042 58.2447C75.9719 58.0863 75.4479 57.6665 75.1604 57.078L72.0594 50.8967C82.4458 49.4353 90.4708 40.5134 90.4708 29.7301C90.4708 17.9301 80.8708 8.33008 69.0708 8.33008C57.2708 8.33008 47.6708 17.9301 47.6708 29.7301C47.6708 36.478 50.8177 42.4957 55.7125 46.4207H41.9885C40.9427 42.7228 37.575 39.9905 33.5479 39.9905H17.7698C12.8052 39.9905 8.76666 44.029 8.76666 48.9926V65.2676C8.76562 68.1509 11.1083 70.4936 13.9885 70.4936ZM45.2042 71.2947C47.9938 71.2947 50.2604 73.5634 50.2604 76.3509C50.2604 79.1395 47.9927 81.4072 45.2042 81.4072C42.4167 81.4072 40.1479 79.1395 40.1479 76.3509C40.1479 73.5624 42.4177 71.2947 45.2042 71.2947ZM75.4771 81.4072C72.6896 81.4072 70.4208 79.1395 70.4208 76.3509C70.4208 73.5624 72.6896 71.2947 75.4771 71.2947C78.2667 71.2947 80.5333 73.5634 80.5333 76.3509C80.5344 79.1384 78.2667 81.4072 75.4771 81.4072ZM50.8021 29.7342C50.8021 19.6613 58.9969 11.4665 69.0698 11.4665C79.1427 11.4665 87.3375 19.6613 87.3375 29.7342C87.3375 39.8072 79.1427 48.0019 69.0698 48.0019C58.9969 48.0019 50.8021 39.8072 50.8021 29.7342ZM64.8 55.3707L66.7656 59.2811H42.3562V55.454L64.8 55.3707ZM11.8979 48.9967C11.8979 45.7592 14.5323 43.1259 17.7698 43.1259H33.5479C36.6781 43.1259 39.225 45.6738 39.225 48.804V65.2717C39.225 66.4238 38.2875 67.3613 37.1354 67.3613H34.6177V55.2592C34.6177 54.3947 33.9177 53.6936 33.0521 53.6936C32.1875 53.6936 31.4865 54.3947 31.4865 55.2592L31.0021 88.5332H26.7312V71.979C26.7312 71.1144 26.0302 70.4134 25.1656 70.4134C24.3 70.4134 23.6 71.1144 23.6 71.979V88.5332H19.3281L18.8427 55.2592C18.8427 54.3947 18.1427 53.6936 17.2771 53.6936C16.4125 53.6936 15.7115 54.3947 15.7115 55.2592V67.3624H13.9896C12.8365 67.3624 11.899 66.4249 11.899 65.2728V48.9967H11.8979Z" fill="#96968C"/>
<path d="M12.824 20.6003C12.8771 20.9139 13.5135 21.6472 13.6344 21.7524C13.5792 22.2003 13.5479 25.042 13.5479 25.042C13.9833 30.6232 16.5771 35.1566 20.424 37.1368C21.875 37.9357 23.7844 38.4566 25.5354 38.4003C26.774 38.3607 27.9469 38.2149 28.9906 37.8566C33.7729 36.3097 37.0375 31.3972 37.5156 24.9212C37.5156 24.9212 37.4812 22.2055 37.424 21.768C37.4958 21.7045 38.0906 21.1462 38.1948 20.8368C38.1948 20.8368 39.0344 18.3295 39.6177 16.3482C40.3146 14.267 39.451 11.9451 37.3813 10.7399C35.1865 9.79929 31.3521 8.61178 25.5479 8.67741C18.4896 8.75658 13.5802 10.7326 13.5042 10.7774C11.5937 11.9253 10.7417 14.2076 11.4323 16.3253L12.824 20.6003ZM34.3896 24.8045C34.0927 28.7743 32.2854 33.5649 28.001 34.8857C24.3365 36.0149 22.2708 34.5847 21.9187 34.3847C19.026 32.8951 17.0156 29.2222 16.675 24.9201V23.3097C17.1802 23.4253 17.6958 23.4993 18.2187 23.4993H32.8438C33.3708 23.4993 33.8833 23.4253 34.3865 23.3118L34.3896 24.8045ZM15.0229 13.5222C17.9792 12.3857 21.5187 11.8097 25.5479 11.8097C30.8208 11.8097 34.2219 12.793 35.9687 13.5285C36.5948 13.8972 36.8802 14.6639 36.6323 15.4076C36.1896 16.9055 35.6135 18.667 35.3583 19.442C34.6625 20.0347 33.7604 20.3691 32.8438 20.3691H18.2187C17.526 20.3691 15.9031 19.6076 15.7562 19.4857L14.4125 15.3566C14.1875 14.668 14.4385 13.9305 15.0229 13.5222Z" fill="#96968C"/>
<path d="M64.2219 36.0426C64.6469 36.4676 65.2052 36.6811 65.7646 36.6811C66.3239 36.6811 66.8823 36.4676 67.3083 36.0426L77.8917 25.4603C78.5031 24.8488 78.5031 23.8582 77.8917 23.2457C77.2802 22.6342 76.2896 22.6342 75.6771 23.2457L65.7646 33.1561L62.4646 29.8561C61.8531 29.2447 60.8625 29.2447 60.25 29.8561C59.6385 30.4676 59.6385 31.4582 60.25 32.0707L64.2219 36.0426Z" fill="#96968C"/>
</svg>
