<svg width="48" height="48" viewBox="0 0 48 48" fill="none" xmlns="http://www.w3.org/2000/svg">
<rect x="0.5" y="0.5" width="47" height="47" rx="23.5" stroke="white" stroke-opacity="0.08"/>
<path d="M25.028 14.0012C25.7577 13.9984 26.4875 14.0058 27.217 14.0232L27.411 14.0302C27.635 14.0382 27.856 14.0482 28.123 14.0602C29.187 14.1102 29.913 14.2782 30.55 14.5252C31.21 14.7792 31.766 15.1232 32.322 15.6792C32.8304 16.1788 33.2238 16.7832 33.475 17.4502C33.722 18.0872 33.89 18.8142 33.94 19.8782C33.952 20.1442 33.962 20.3662 33.97 20.5902L33.976 20.7842C33.9938 21.5134 34.0014 22.2428 33.999 22.9722L34 23.7182V25.0282C34.0025 25.758 33.9948 26.4877 33.977 27.2172L33.971 27.4112C33.963 27.6352 33.953 27.8562 33.941 28.1232C33.891 29.1872 33.721 29.9132 33.475 30.5502C33.2246 31.218 32.8311 31.8228 32.322 32.3222C31.822 32.8306 31.2173 33.224 30.55 33.4752C29.913 33.7222 29.187 33.8902 28.123 33.9402C27.856 33.9522 27.635 33.9622 27.411 33.9702L27.217 33.9762C26.4875 33.994 25.7577 34.0017 25.028 33.9992L24.282 34.0002H22.973C22.2433 34.0027 21.5135 33.995 20.784 33.9772L20.59 33.9712C20.3526 33.9626 20.1153 33.9526 19.878 33.9412C18.814 33.8912 18.088 33.7212 17.45 33.4752C16.7827 33.2246 16.1782 32.8311 15.679 32.3222C15.17 31.8225 14.7762 31.2178 14.525 30.5502C14.278 29.9132 14.11 29.1872 14.06 28.1232C14.0489 27.8859 14.0389 27.6486 14.03 27.4112L14.025 27.2172C14.0066 26.4877 13.9982 25.758 14 25.0282V22.9722C13.9972 22.2428 14.0045 21.5134 14.022 20.7842L14.029 20.5902C14.037 20.3662 14.047 20.1442 14.059 19.8782C14.109 18.8132 14.277 18.0882 14.524 17.4502C14.7754 16.7829 15.17 16.1787 15.68 15.6802C16.1789 15.171 16.783 14.7768 17.45 14.5252C18.088 14.2782 18.813 14.1102 19.878 14.0602L20.59 14.0302L20.784 14.0252C21.5132 14.0068 22.2426 13.9985 22.972 14.0002L25.028 14.0012ZM24 19.0012C23.3375 18.9919 22.6798 19.1143 22.065 19.3613C21.4502 19.6083 20.8906 19.9751 20.4188 20.4403C19.947 20.9055 19.5724 21.4598 19.3167 22.071C19.061 22.6822 18.9293 23.3382 18.9293 24.0007C18.9293 24.6633 19.061 25.3192 19.3167 25.9305C19.5724 26.5417 19.947 27.096 20.4188 27.5612C20.8906 28.0264 21.4502 28.3931 22.065 28.6402C22.6798 28.8872 23.3375 29.0096 24 29.0002C25.3261 29.0002 26.5978 28.4734 27.5355 27.5358C28.4732 26.5981 29 25.3263 29 24.0002C29 22.6741 28.4732 21.4024 27.5355 20.4647C26.5978 19.527 25.3261 19.0012 24 19.0012ZM24 21.0012C24.3985 20.9939 24.7945 21.066 25.1648 21.2134C25.5351 21.3608 25.8723 21.5806 26.1568 21.8598C26.4412 22.139 26.6672 22.4721 26.8214 22.8396C26.9757 23.2071 27.0552 23.6016 27.0553 24.0002C27.0553 24.3988 26.976 24.7934 26.8218 25.1609C26.6677 25.5285 26.4418 25.8617 26.1575 26.141C25.8731 26.4203 25.536 26.6401 25.1657 26.7876C24.7955 26.9352 24.3995 27.0074 24.001 27.0002C23.2053 27.0002 22.4423 26.6842 21.8797 26.1216C21.3171 25.5589 21.001 24.7959 21.001 24.0002C21.001 23.2046 21.3171 22.4415 21.8797 21.8789C22.4423 21.3163 23.2053 21.0002 24.001 21.0002L24 21.0012ZM29.25 17.5012C28.9274 17.5141 28.6223 17.6514 28.3986 17.8842C28.1749 18.117 28.05 18.4274 28.05 18.7502C28.05 19.0731 28.1749 19.3834 28.3986 19.6163C28.6223 19.8491 28.9274 19.9863 29.25 19.9992C29.5815 19.9992 29.8995 19.8675 30.1339 19.6331C30.3683 19.3987 30.5 19.0808 30.5 18.7492C30.5 18.4177 30.3683 18.0998 30.1339 17.8653C29.8995 17.6309 29.5815 17.4992 29.25 17.4992V17.5012Z" fill="#BC9E69"/>
</svg>
