<svg width="147" height="44" viewBox="0 0 147 44" fill="none" xmlns="http://www.w3.org/2000/svg">
<g clip-path="url(#clip0_150_980)">
<path d="M24.9106 12.5258C25.5106 11.5064 25.8107 10.9968 26.2482 10.6497C26.4857 10.4613 26.7502 10.3101 27.033 10.201C27.5541 10 28.1455 10 29.3284 10C32.5896 10 34.2203 10 35.0821 10.7953C35.5357 11.2138 35.8491 11.762 35.9797 12.3652C36.2278 13.5113 35.4006 14.9166 33.7461 17.7271L25.6535 31.4742C25.0535 32.4936 24.7534 33.0032 24.3159 33.3503C24.0784 33.5387 23.8139 33.6899 23.5311 33.799C23.01 34 22.4186 34 21.2357 34C17.9744 34 16.3438 34 15.482 33.2047C15.0284 32.7862 14.715 32.238 14.5844 31.6348C14.3363 30.4887 15.1635 29.0834 16.818 26.2729L24.9106 12.5258Z" fill="#BC9E69"/>
<path d="M13.3849 11.8943C13.6225 11.4906 13.7414 11.2887 13.8793 11.1176C14.353 10.5297 15.031 10.1421 15.778 10.032C15.9954 10 16.2297 10 16.6982 10C17.9816 10 18.6232 10 19.0512 10.1305C20.569 10.5936 21.4637 12.1585 21.0927 13.7013C20.9881 14.1363 20.6626 14.6893 20.0115 15.7953L10.41 32.1057C10.1723 32.5094 10.0535 32.7113 9.91559 32.8824C9.44184 33.4703 8.76384 33.8579 8.0169 33.968C7.79946 34 7.5652 34 7.09668 34C5.81332 34 5.17163 34 4.7437 33.8695C3.2259 33.4065 2.33119 31.8415 2.70217 30.2987C2.80676 29.8637 3.13229 29.3107 3.78334 28.2047L13.3849 11.8943Z" fill="#BC9E69"/>
</g>
<path d="M53.264 11.38C54.7787 11.38 56.08 11.6467 57.168 12.18C58.2773 12.7133 59.1413 13.4707 59.76 14.452C60.3787 15.4333 60.688 16.6173 60.688 18.004C60.688 19.3693 60.3787 20.5533 59.76 21.556C59.1413 22.5373 58.2773 23.2947 57.168 23.828C56.08 24.3613 54.7787 24.628 53.264 24.628H48.56V32.5H45.136V11.38H53.264ZM52.72 21.684C54.2347 21.684 55.344 21.3747 56.048 20.756C56.7733 20.116 57.136 19.1987 57.136 18.004C57.136 16.788 56.7733 15.8707 56.048 15.252C55.344 14.612 54.2347 14.292 52.72 14.292H48.56V21.684H52.72ZM64.0785 32.5V16.5H66.9905L67.3105 19.38C67.7372 18.3347 68.3665 17.5453 69.1985 17.012C70.0518 16.4573 71.0972 16.18 72.3345 16.18C72.6545 16.18 72.9745 16.212 73.2945 16.276C73.6145 16.3187 73.8812 16.3933 74.0945 16.5L73.6145 19.508C73.3798 19.4227 73.1132 19.3587 72.8145 19.316C72.5372 19.252 72.1532 19.22 71.6625 19.22C71.0012 19.22 70.3505 19.4013 69.7105 19.764C69.0705 20.1053 68.5372 20.628 68.1105 21.332C67.7052 22.036 67.5025 22.932 67.5025 24.02V32.5H64.0785ZM78.4165 13.812C77.6698 13.812 77.0938 13.6307 76.6885 13.268C76.3045 12.884 76.1125 12.3507 76.1125 11.668C76.1125 10.9853 76.3045 10.4627 76.6885 10.1C77.0938 9.73733 77.6698 9.556 78.4165 9.556C79.1418 9.556 79.6965 9.73733 80.0805 10.1C80.4858 10.4627 80.6885 10.9853 80.6885 11.668C80.6885 12.3507 80.4858 12.884 80.0805 13.268C79.6965 13.6307 79.1418 13.812 78.4165 13.812ZM80.1125 16.5V32.5H76.6885V16.5H80.1125ZM84.8298 32.5V16.5H87.8698L88.0298 19.188C88.5844 18.164 89.3204 17.4067 90.2378 16.916C91.1764 16.4253 92.1684 16.18 93.2138 16.18C94.3658 16.18 95.4218 16.4467 96.3818 16.98C97.3631 17.492 98.0991 18.2707 98.5898 19.316C98.9311 18.612 99.4004 18.0253 99.9978 17.556C100.595 17.0867 101.256 16.7453 101.982 16.532C102.707 16.2973 103.422 16.18 104.126 16.18C105.15 16.18 106.11 16.3933 107.006 16.82C107.902 17.2467 108.627 17.8973 109.182 18.772C109.736 19.6467 110.014 20.7667 110.014 22.132V32.5H106.59V22.676C106.59 21.3747 106.28 20.436 105.662 19.86C105.043 19.284 104.254 18.996 103.294 18.996C102.547 18.996 101.854 19.1773 101.214 19.54C100.595 19.9027 100.094 20.4467 99.7098 21.172C99.3258 21.876 99.1338 22.7507 99.1338 23.796V32.5H95.7098V22.676C95.7098 21.3747 95.4004 20.436 94.7818 19.86C94.1631 19.284 93.3738 18.996 92.4138 18.996C91.7738 18.996 91.1338 19.1667 90.4938 19.508C89.8538 19.8493 89.3204 20.3827 88.8938 21.108C88.4671 21.8333 88.2538 22.7933 88.2538 23.988V32.5H84.8298ZM121.605 32.82C120.005 32.82 118.597 32.4893 117.381 31.828C116.165 31.1667 115.215 30.2173 114.533 28.98C113.871 27.7213 113.541 26.228 113.541 24.5C113.541 22.772 113.871 21.2893 114.533 20.052C115.215 18.7933 116.154 17.8333 117.349 17.172C118.543 16.5107 119.898 16.18 121.413 16.18C122.97 16.18 124.293 16.5 125.381 17.14C126.469 17.78 127.301 18.6547 127.877 19.764C128.453 20.8733 128.741 22.132 128.741 23.54C128.741 23.924 128.73 24.2867 128.709 24.628C128.687 24.9693 128.655 25.268 128.613 25.524H115.749V22.9H127.109L125.413 23.412C125.413 21.9613 125.05 20.852 124.325 20.084C123.599 19.2947 122.607 18.9 121.349 18.9C120.431 18.9 119.631 19.1133 118.949 19.54C118.266 19.9667 117.743 20.6067 117.381 21.46C117.018 22.292 116.837 23.316 116.837 24.532C116.837 25.7267 117.029 26.74 117.413 27.572C117.797 28.404 118.341 29.0333 119.045 29.46C119.749 29.8867 120.581 30.1 121.541 30.1C122.607 30.1 123.471 29.8973 124.133 29.492C124.794 29.0867 125.317 28.5213 125.701 27.796L128.421 29.076C128.037 29.844 127.514 30.516 126.853 31.092C126.213 31.6467 125.445 32.0733 124.549 32.372C123.653 32.6707 122.671 32.82 121.605 32.82ZM134.265 16.5L138.777 23.348L139.417 23.444L145.913 32.5H141.849L137.145 25.46L136.409 25.204L130.137 16.5H134.265ZM145.817 16.5L139.545 25.076L138.841 25.044L133.721 32.5H129.817L136.633 23.38L137.305 23.444L141.881 16.5H145.817Z" fill="#BC9E69"/>
<defs>
<clipPath id="clip0_150_980">
<rect width="38" height="24" fill="white" transform="translate(0 10)"/>
</clipPath>
</defs>
</svg>
