<svg width="33" height="38" viewBox="0 0 33 38" fill="none" xmlns="http://www.w3.org/2000/svg">
<path d="M14.248 37.0156C10.1797 36.0034 6.56695 33.6592 3.98511 30.3563C1.40322 27.0533 0.000611356 22.9814 0.000611173 18.7891C0.00061099 14.5968 1.40322 10.525 3.98511 7.22199C6.56695 3.91899 10.1797 1.57486 14.248 0.562629L14.248 2.20898C14.2071 4.98624 15.0372 7.70657 16.6215 9.988C16.7169 10.1197 16.804 10.2572 16.8822 10.3996L16.8822 10.5917C16.804 10.7341 16.7169 10.8715 16.6215 11.0032C15.0738 13.3048 14.2472 16.0156 14.2472 18.7891C14.2472 21.5627 15.0738 24.2734 16.6215 26.575C16.7169 26.7067 16.804 26.8442 16.8822 26.9866L16.8822 27.1787C16.804 27.3211 16.7169 27.4585 16.6215 27.5903C15.0372 29.8717 14.2071 32.592 14.248 35.3693L14.248 37.0156ZM22.8502 5.17242C22.1921 4.32729 21.8477 3.2798 21.8761 2.20898L21.8761 0.000124929L17.4721 0.000125121L17.4721 2.20898C17.4493 4.09516 18.0364 5.93811 19.1459 7.46359C19.7788 8.32202 20.1203 9.36046 20.1203 10.427C20.1203 11.4936 19.7788 12.532 19.1459 13.3905C18.0571 14.9546 17.4734 16.8147 17.4734 18.7205C17.4734 20.6263 18.0571 22.4864 19.1459 24.0506C19.7788 24.909 20.1203 25.9475 20.1203 27.014C20.1203 28.0806 19.7788 29.119 19.1459 29.9775C18.0221 31.5217 17.4344 33.3912 17.4721 35.3007L17.4721 37.5781L21.8761 37.5781L21.8761 35.3693C21.8477 34.2984 22.1921 33.251 22.8502 32.4058C23.9398 30.8445 24.524 28.9865 24.524 27.0826C24.524 25.1788 23.9398 23.3207 22.8502 21.7594C22.1941 20.9132 21.85 19.8665 21.8761 18.796C21.8454 17.7248 22.19 16.6766 22.8502 15.8325C23.9391 14.2684 24.5228 12.4083 24.5228 10.5025C24.5228 8.59669 23.9391 6.73659 22.8502 5.17242ZM30.7253 5.17242C30.0671 4.32729 29.7228 3.2798 29.7512 2.20898L29.7512 0.000124585L25.3472 0.000124777L25.3472 2.20898C25.3244 4.09516 25.9115 5.93811 27.021 7.46359C27.6538 8.32202 27.9953 9.36046 27.9953 10.427C27.9953 11.4936 27.6538 12.532 27.021 13.3905C25.9322 14.9546 25.3485 16.8147 25.3485 18.7205C25.3485 20.6263 25.9322 22.4864 27.021 24.0506C27.6538 24.909 27.9953 25.9475 27.9953 27.014C27.9953 28.0806 27.6538 29.119 27.021 29.9775C25.8973 31.5217 25.3094 33.3912 25.3472 35.3007L25.3472 37.5781L29.7512 37.5781L29.7512 35.3693C29.7228 34.2984 30.0671 33.251 30.7253 32.4058C31.8149 30.8445 32.399 28.9865 32.399 27.0826C32.399 25.1788 31.8149 23.3207 30.7253 21.7594C30.0692 20.9132 29.7251 19.8665 29.7512 18.796C29.7204 17.7248 30.0651 16.6766 30.7253 15.8325C31.8142 14.2684 32.3978 12.4083 32.3978 10.5025C32.3978 8.59669 31.8142 6.73659 30.7253 5.17242Z" fill="#BC9E69"/>
</svg>
