<svg width="48" height="48" viewBox="0 0 48 48" fill="none" xmlns="http://www.w3.org/2000/svg">
<rect x="0.5" y="0.5" width="47" height="47" rx="23.5" stroke="white" stroke-opacity="0.08"/>
<path d="M28.6 17.82C27.9164 17.0396 27.5397 16.0374 27.54 15H24.45V27.4C24.4262 28.071 24.1429 28.7066 23.6598 29.1729C23.1767 29.6393 22.5314 29.8999 21.86 29.9C20.44 29.9 19.26 28.74 19.26 27.3C19.26 25.58 20.92 24.29 22.63 24.82V21.66C19.18 21.2 16.16 23.88 16.16 27.3C16.16 30.63 18.92 33 21.85 33C24.99 33 27.54 30.45 27.54 27.3V21.01C28.793 21.9099 30.2974 22.3926 31.84 22.39V19.3C31.84 19.3 29.96 19.39 28.6 17.82Z" fill="#BC9E69"/>
</svg>
